<?xml version="1.0" standalone="no"?>
<!DOCTYPE svg PUBLIC "-//W3C//DTD SVG 1.1//EN" "http://www.w3.org/Graphics/SVG/1.1/DTD/svg11.dtd" >
<svg xmlns="http://www.w3.org/2000/svg">
<metadata>
Created by FontForge 20120731 at Sun May 15 22:07:38 2016
 By admin
</metadata>
<defs>
<font id="iconfont" horiz-adv-x="1024" >
  <font-face 
    font-family="iconfont"
    font-weight="500"
    font-stretch="normal"
    units-per-em="1024"
    panose-1="2 0 6 3 0 0 0 0 0 0"
    ascent="896"
    descent="-128"
    x-height="792"
    bbox="-0.121952 -212 1470 896.786"
    underline-thickness="50"
    underline-position="-100"
    unicode-range="U+0078-E631"
  />
<missing-glyph horiz-adv-x="374" 
d="M34 0v682h272v-682h-272zM68 34h204v614h-204v-614z" />
    <glyph glyph-name=".notdef" horiz-adv-x="374" 
d="M34 0v682h272v-682h-272zM68 34h204v614h-204v-614z" />
    <glyph glyph-name=".null" horiz-adv-x="0" 
 />
    <glyph glyph-name="nonmarkingreturn" horiz-adv-x="341" 
 />
    <glyph glyph-name="x" unicode="x" horiz-adv-x="1001" 
d="M281 543q-27 -1 -53 -1h-83q-18 0 -36.5 -6t-32.5 -18.5t-23 -32t-9 -45.5v-76h912v41q0 16 -0.5 30t-0.5 18q0 13 -5 29t-17 29.5t-31.5 22.5t-49.5 9h-133v-97h-438v97zM955 310v-52q0 -23 0.5 -52t0.5 -58t-10.5 -47.5t-26 -30t-33 -16t-31.5 -4.5q-14 -1 -29.5 -0.5
t-29.5 0.5h-32l-45 128h-439l-44 -128h-29h-34q-20 0 -45 1q-25 0 -41 9.5t-25.5 23t-13.5 29.5t-4 30v167h911zM163 247q-12 0 -21 -8.5t-9 -21.5t9 -21.5t21 -8.5q13 0 22 8.5t9 21.5t-9 21.5t-22 8.5zM316 123q-8 -26 -14 -48q-5 -19 -10.5 -37t-7.5 -25t-3 -15t1 -14.5
t9.5 -10.5t21.5 -4h37h67h81h80h64h36q23 0 34 12t2 38q-5 13 -9.5 30.5t-9.5 34.5q-5 19 -11 39h-368zM336 498v228q0 11 2.5 23t10 21.5t20.5 15.5t34 6h188q31 0 51.5 -14.5t20.5 -52.5v-227h-327z" />
    <glyph glyph-name="uniE600" unicode="&#xe600;" 
d="M943 141l-3 17l-3 16l-2 8l-2 9l-3 8l-3 10l-4 8l-4 10l-6 14l-7 13l-6 12l-5 11l-6 10l-4 9l-10 13l-12 18l-3 5v2v1l2 6l2 6l3 11l1 5v6l1 4v5l-1 5l-1 5l-2 8l-2 9l-2 8l-3 8l-4 6l-3 6l-3 6l-5 8l-2 3v3l-3 16l-1 11l-2 13l-2 13l-5 16l-2 9l-2 7l-2 9l-3 9l-3 9
l-4 9l-8 18l-4 8l-5 10l-6 8l-5 10l-7 8l-6 9l-7 8l-8 8l-8 8l-9 8l-4 3l-5 3l-10 7l-11 8l-11 7l-12 6l-13 5l-12 6l-13 4l-14 4l-13 3l-13 3l-13 3l-14 2l-13 2l-14 1h-40h-14l-25 -4l-13 -2l-13 -3l-12 -3l-12 -3l-12 -4l-11 -4l-11 -6l-11 -4l-9 -6l-10 -6l-9 -6l-9 -7
l-8 -7l-11 -11l-10 -10l-9 -10l-9 -10l-8 -10l-7 -10l-6 -10l-4 -5l-3 -5l-6 -10l-5 -9l-4 -9l-4 -10l-4 -8l-3 -9l-3 -8l-3 -8l-4 -15l-3 -14l-1 -11l-2 -10v-20l-3 -3l-2 -4l-2 -4l-2 -4l-2 -8l-3 -8v-7l-1 -5v-6l-5 -8l-4 -8l-3 -7l-2 -7l-2 -6l-1 -7v-15v-4l2 -7l1 -5
l-3 -2l-8 -7l-11 -10l-7 -6l-7 -6l-5 -5l-3 -4l-9 -9l-7 -9l-6 -7l-8 -11l-7 -10l-7 -11l-5 -10l-5 -11l-5 -10l-4 -10l-4 -11l-3 -10l-3 -10l-2 -9l-2 -9l-1 -9l-2 -9v-17v-23v-7l3 -12v-5l2 -5l1 -5l2 -4l3 -6l2 -1l1 -3l1 -1h2l7 1l7 2l5 2l7 4l5 4l5 4l6 5l4 5l5 6l3 6
l4 4l3 5l4 8l1 4l1 2l1 2l1 2h1l1 1h1v-1h1h1l3 -11l2 -9l4 -10l4 -9l3 -8l5 -8l3 -7l4 -8l5 -6l3 -6l10 -11l8 -10l7 -8l8 -6l7 -6l10 -9l4 -2l1 -1v-1l-1 -1l-2 -1h-8l-7 -1l-6 -1l-6 -2l-5 -1l-5 -2l-5 -2l-4 -3l-4 -1l-3 -3l-3 -1l-4 -3l-4 -5l-1 -3l-2 -2l-3 -6l-1 -4
l-2 -5l-1 -4v-8v-3v-4l-1 -4v-3l1 -4v-3l3 -7l1 -3l2 -3l2 -3l2 -2l3 -3l3 -2l6 -6l7 -4l8 -4l8 -3l9 -4l10 -2l10 -3l10 -2l11 -2l11 -2l11 -1l22 -3h23h40h10l8 1l9 1l7 1l13 2l8 3l9 2l15 6l8 3l6 3l11 7l10 5l8 4l5 5l15 -1l13 -1h11l4 -1l4 -2l7 -2l7 -2l13 -4l14 -6
l14 -3l13 -3l14 -4l14 -2l14 -1l13 -2l13 -1l14 -1h38l12 1l12 1l11 2l11 2l10 2l10 3l5 1l4 2l9 3l8 4l7 4l7 4l6 4l3 3l3 3l3 4l4 6l2 3v2l2 3l1 3v3l1 4l-1 4l-1 4l-2 5l-1 4l-3 4l-3 4l-2 4l-4 3l-9 7l-9 7l-9 5l-9 6l-22 11l-6 3l-1 2l-1 1l11 10l4 6l4 4l7 11l7 11
l6 10l6 9l7 19l6 16l4 11l2 3l2 3l2 2h1h1l5 -12l5 -11l4 -6l4 -5l3 -6l5 -7l4 -4l2 -3l3 -2l2 -2l2 -1l4 -2l3 -1h3l3 1l3 1l3 2l3 2l2 3l3 3l2 3l3 4l2 4l2 5l1 4l4 11l2 11l1 13l1 7v20z" />
    <glyph glyph-name="uniE601" unicode="&#xe601;" 
d="M502.5 735q94.5 0 161 -65.5t66.5 -158t-66.5 -158t-161 -65.5t-161 65.5t-66.5 158t66.5 158t161 65.5zM502.5 735q94.5 0 161 -65.5t66.5 -158t-66.5 -158t-161 -65.5t-161 65.5t-66.5 158t66.5 158t161 65.5zM417 213h190q121 0 207 -84.5t86 -203.5v-19
q0 -15 -9.5 -26.5t-31 -18.5t-44 -11.5t-61 -6t-68.5 -2t-79 -0.5h-190h-79q-26 0 -67.5 2t-62 6t-43.5 11t-32 18.5t-9 27.5v19q0 119 86 203.5t207 84.5z" />
    <glyph glyph-name="uniE602" unicode="&#xe602;" 
d="M510 -53q-8 4 -21 12t-51.5 34.5t-74 54.5t-78 72t-73.5 88.5t-52 101t-21 112.5q0 77 64 133.5t144 56.5q57 0 100.5 -32.5t62.5 -86.5h1q18 54 61.5 86.5t101.5 32.5q79 0 143.5 -56.5t64.5 -133.5q0 -56 -20.5 -112.5t-53.5 -102t-72.5 -87.5t-79 -72.5t-72.5 -53.5
t-53 -35t-21 -12zM512 -111q-9 5 -25 14.5t-62.5 41t-88.5 65.5t-93.5 86.5t-88.5 106t-62.5 121.5t-25.5 135q0 61 36.5 114.5t94 83.5t118.5 30q69 0 121.5 -39t75.5 -103v0q23 64 75.5 103t121.5 39q61 0 118.5 -30t94 -83.5t36.5 -114.5q0 -67 -24.5 -134.5t-64 -122.5
t-87 -105t-95 -87.5t-87 -65t-64 -42t-24.5 -13.5z" />
    <glyph glyph-name="uniE603" unicode="&#xe603;" 
d="M693 453q15 0 35 -2q-23 109 -127.5 181.5t-238.5 72.5q-98 0 -181 -40.5t-132 -111.5t-49 -156q0 -143 145 -245l-36 -109l127 64q6 -2 25 -5.5t27 -5t22.5 -4t26.5 -3t25 -0.5q16 0 34 1q-11 38 -11 76q0 119 89.5 203t218.5 84zM498 551q21 0 33.5 -12.5t12.5 -33
t-12.5 -33t-33.5 -12.5t-37.5 13t-16.5 32.5t16.5 32.5t37.5 13zM245 460q-22 0 -38.5 13t-16.5 32.5t16.5 32.5t38.5 13q20 0 32.5 -12.5t12.5 -33t-12.5 -33t-32.5 -12.5zM1024 170q0 71 -43 132t-113.5 96t-151.5 35q-129 0 -218.5 -77t-89.5 -186t89.5 -186t218.5 -77
q37 0 109 18l99 -54l-27 90q127 96 127 209zM616 216q-13 0 -24.5 11t-11.5 24.5t11.5 25t24.5 11.5q20 0 33 -11t13 -25.5t-13 -25t-33 -10.5zM815 216q-13 0 -24.5 11t-11.5 24.5t11.5 25t24.5 11.5q20 0 33 -11t13 -25.5t-13 -25t-33 -10.5z" />
    <glyph glyph-name="uniE604" unicode="&#xe604;" 
d="M859 548q-13 0 -25 -5q-26 112 -117.5 185t-209.5 73t-209.5 -73t-117.5 -185q-12 5 -25 5q-26 0 -44.5 -18.5t-18.5 -44.5v-235q0 -26 18.5 -44.5t44.5 -18.5q25 0 43 16.5t21 39.5q38 -82 116 -132t172.5 -50t172 50t116.5 132q3 -33 33 -49q-34 -68 -98 -113t-143 -54
q-6 15 -19.5 24.5t-30.5 9.5q-23 0 -39 -16t-16 -38.5t16 -38t39 -15.5q18 0 32 10.5t20 27.5q91 9 164.5 62.5t111.5 134.5q24 2 40.5 20t16.5 42v235q0 26 -19 44.5t-45 18.5zM507 115q-68 0 -122 39t-76 101h396q-21 -62 -75.5 -101t-122.5 -39zM507 693
q-85 0 -157 -41.5t-115 -110.5q25 90 100.5 148t171.5 58t171.5 -58t100.5 -148q-43 69 -115 110.5t-157 41.5zM859 548q-13 0 -25 -5q-26 112 -117.5 185t-209.5 73t-209.5 -73t-117.5 -185q-12 5 -25 5q-26 0 -44.5 -18.5t-18.5 -44.5v-235q0 -26 18.5 -44.5t44.5 -18.5
q25 0 43 16.5t21 39.5q38 -82 116 -132t172.5 -50t172 50t116.5 132q3 -33 33 -49q-34 -68 -98 -113t-143 -54q-6 15 -19.5 24.5t-30.5 9.5q-23 0 -39 -16t-16 -38.5t16 -38t39 -15.5q18 0 32 10.5t20 27.5q91 9 164.5 62.5t111.5 134.5q24 2 40.5 20t16.5 42v235
q0 26 -19 44.5t-45 18.5zM507 115q-68 0 -122 39t-76 101h396q-21 -62 -75.5 -101t-122.5 -39zM507 693q-85 0 -157 -41.5t-115 -110.5q25 90 100.5 148t171.5 58t171.5 -58t100.5 -148q-43 69 -115 110.5t-157 41.5z" />
    <glyph glyph-name="uniE605" unicode="&#xe605;" 
d="M287 384h450v-64h-450v64zM287 256h450v-64h-450v64zM287 127h450v-64h-450v64zM866 674h-129v32h-96v-32h-258v32h-96v-32h-129q-13 0 -22.5 -9.5t-9.5 -22.5v-740q0 -13 9.5 -22.5t22.5 -9.5h708q13 0 22.5 9.5t9.5 22.5v740q0 13 -9.5 22.5t-22.5 9.5zM287 609v-32h96
v32h258v-32h96v32h96v-96h-642v96h96zM191 -66v547h642v-547h-642z" />
    <glyph glyph-name="uniE606" unicode="&#xe606;" 
d="M623 611h-175v142l-384 -192l384 -192v142h189q225 0 225 -188q0 -195 -232 -195h-442v-100h446q317 0 317 285q0 298 -328 298z" />
    <glyph glyph-name="uniE607" unicode="&#xe607;" 
d="M772 200q-59 59 -137 87q41 20 74 52q81 82 81 197t-81.5 196.5t-196.5 81.5t-196.5 -81.5t-81.5 -196.5t81 -197q33 -32 74 -52q-78 -28 -137 -87q-102 -102 -107 -246h48q6 124 93 212q86 85 207 92h19h19q121 -7 207 -92q87 -88 93 -212h48q-5 144 -107 246zM282 536
q0 95 67.5 162.5t162.5 67.5t162.5 -67.5t67.5 -162.5q0 -90 -61.5 -156t-149.5 -73q-10 1 -19 1t-19 -1q-88 7 -149.5 73t-61.5 156z" />
    <glyph glyph-name="uniE608" unicode="&#xe608;" 
d="M575 768l386 -385l-382 -382l-45 45l304 305h-772v64h772l-308 308z" />
    <glyph glyph-name="uniE609" unicode="&#xe609;" 
d="M511 -58q-90 0 -167 22t-121.5 60.5t-44.5 83.5v94q0 -45 45 -79t120.5 -52t168 -18t167.5 18t120 52t45 79v-94q0 -45 -44.5 -83.5t-121 -60.5t-167.5 -22zM511 108q-90 0 -167 22.5t-121.5 61t-44.5 83.5v94q0 -45 45 -79.5t120.5 -52.5t168 -18t167.5 18t120 52.5
t45 79.5v-94q0 -45 -44.5 -83.5t-121 -61t-167.5 -22.5zM511 275q-90 0 -167 22.5t-121.5 60.5t-44.5 84v93q0 -45 45 -79t120.5 -52t168 -18t167.5 18t120 52t45 79v-93q0 -46 -44.5 -84t-121 -60.5t-167.5 -22.5zM511 442q-90 0 -167 22t-121.5 60.5t-44.5 83.5v56
q0 45 44.5 83.5t121.5 60.5t167.5 22t167 -22t121 -60.5t44.5 -83.5v-56q0 -45 -44.5 -83.5t-121 -60.5t-167.5 -22z" />
    <glyph glyph-name="uniE60A" unicode="&#xe60a;" 
d="M683 640l98 -98l-209 -209l-171 170l-316 -315l60 -60l256 256l171 -171l269 269l98 -98v256h-256z" />
    <glyph glyph-name="uniE60B" unicode="&#xe60b;" 
d="M887 195q-15 13 -42 13h-22v369q0 17 -10 45.5t-34.5 64.5t-59 67t-90.5 52.5t-122 21.5q-50 0 -93.5 -13.5t-73.5 -34.5t-55.5 -47.5t-40.5 -52t-25.5 -48t-14.5 -35t-4 -13.5v-5v-371h-24q-24 0 -38 -13q-19 -17 -19 -47q0 -29 18 -42q17 -17 44 -17h213q0 -75 39 -118
q31 -31 77 -31q77 0 106 69q14 32 14 80h-39q0 -40 -11 -65q-18 -44 -70 -44q-30 0 -49 18q-29 29 -29 89h409q62 0 62 65q2 29 -16 43zM843 128h-662q-10 0 -17 5q-5 5 -5 15q0 14 5 19q3 4 10 4h44q9 0 14 5t5 13v388q4 14 11 32t28.5 52.5t49 61t75.5 47t104 20.5
q62 0 112.5 -20t80 -47.5t49.5 -59t27.5 -53.5t7.5 -31v-388q0 -8 5.5 -13.5t14.5 -5.5h43h2q10 0 13.5 -3t3.5 -12q0 -14 -2.5 -20.5t-6 -7.5t-12.5 -1zM507 691q-84 0 -132 -48q-22 -22 -34 -54t-13.5 -45.5t-1.5 -22.5q0 -8 6 -13.5t14 -5.5t14.5 5.5t6.5 13.5
q0 34 19 66q33 63 123 63q7 0 13.5 5.5t6.5 13.5q-5 22 -22 22z" />
    <glyph glyph-name="uniE60C" unicode="&#xe60c;" 
d="M812 795l-222 -378h175v-83h-204v-115h204v-85h-204v-167h-105v167h-212v85h212v115h-212v83h181l-220 378h118q154 -282 187 -357h3q11 31 61 125l126 232h112z" />
    <glyph glyph-name="uniE60D" unicode="&#xe60d;" 
d="M505 153q-1 0 -72.5 78t-72.5 80q-14 19 -22.5 33t-15 30.5t-4.5 30t14 23.5l-207 225q-12 -15 -22 -40t-11.5 -75t14.5 -108.5t65.5 -143t130.5 -174.5q85 -95 168 -156.5t142.5 -84t111 -26t79 5t40.5 21.5l-201 219q-11 -10 -23.5 -11t-30.5 9t-35.5 24t-47.5 40z
M923 -9l-157 171q-9 10 -22.5 10.5t-23.5 -8.5l-62 -57l202 -220l62 57q10 10 10 23.5t-9 23.5zM410 501q10 10 10.5 24t-8.5 23l-162 176q-9 10 -22.5 10.5t-23.5 -8.5l-62 -57l207 -225l3 3q3 3 8.5 8t12 11t13 12.5t12 11.5t8.5 8z" />
    <glyph glyph-name="uniE60E" unicode="&#xe60e;" 
d="M960 148q0 -28 -15 -54l-282 317l279 244q18 -27 18 -59v-448zM512 353l389 341q-26 14 -53 14h-672q-27 0 -53 -14zM620 374l-90 -79q-7 -7 -18 -7t-18 7l-91 79l-286 -321q28 -17 59 -17h672q31 0 59 17zM82 655q-18 -27 -18 -59v-448q0 -28 15 -54l282 317z" />
    <glyph glyph-name="uniE60F" unicode="&#xe60f;" 
d="M512 808q-103 0 -197 -40.5t-162 -108.5t-108.5 -162t-40.5 -197t40.5 -197t108.5 -162t162 -108.5t197 -40.5t197 40.5t162 108.5t108.5 162t40.5 197t-40.5 197t-108.5 162t-162 108.5t-197 40.5zM647 128q-13 -26 -29 -43.5t-43.5 -27.5t-70 -10t-73 10t-50.5 30.5
t-27.5 48t-7.5 62.5t17.5 68.5t58.5 53.5q-35 21 -46.5 45.5t-13 56.5t8.5 55.5t30.5 44t45 27.5t53.5 7t52.5 -6t49.5 -24.5t38 -53.5t-1 -81.5t-69 -73.5q50 -14 70 -44.5t20 -74.5t-13 -70zM500.5 347q43.5 0 65.5 26t20.5 62.5t-26.5 54t-67 14.5t-59.5 -25t-17.5 -51
t20.5 -55t64 -26zM564 266.5q-32 21.5 -69.5 19t-62.5 -26t-26.5 -58.5t12 -61t48 -33.5t72.5 1.5t52.5 41t10 64t-36.5 53.5z" />
    <glyph glyph-name="uniE610" unicode="&#xe610;" 
d="M960 343l-448 448l-448 -448h138v-366h211v262h209v-262h209v366h129zM884 708h-216v-1l216 -216v217z" />
    <glyph glyph-name="uniE611" unicode="&#xe611;" 
d="M512 826q-90 0 -172 -35t-141 -94t-94 -141t-35 -171.5t35 -171.5t94 -141t141 -94t172 -35t171.5 35t140.5 94t94 141t35 171.5t-35 171.5t-94 141t-140.5 94t-171.5 35zM702 164l-104 -159l-191 10l-90 150l-186 63l-20 191l118 80l-20 148l150 117l149 -60l149 60
l150 -117l-21 -150l112 -55l2 -187zM346 421l64 -194h204l63 194l-165 121z" />
    <glyph glyph-name="uniE612" unicode="&#xe612;" horiz-adv-x="1119" 
d="M1011 554l-2 4l-128 215l-100 -219h230zM379 554h342l-171 241zM515 806h-241q-14 0 -28 -9l103 -226zM855 800q-12 6 -23 6h-247l166 -235zM370 519l180 -557h1l179 557h-360zM221 767l-124 -209q-1 -1 -3 -4h225zM90 519l1 -2h2l8 -10l395 -492l-163 504h-243z
M1012 519h-245l-167 -518l405 506q5 5 7 12zM1012 519z" />
    <glyph glyph-name="uniE613" unicode="&#xe613;" 
d="M863 110q16 -47 71 -89q12 -9 -9 -14q-46 -12 -118 19q-59 27 -110 79h-321q-46 0 -83 29q32 21 60 47h296q80 0 136.5 56.5t56.5 136.5v254q51 -5 85.5 -43t34.5 -90v-256q0 -46 -28 -82t-71 -47zM648 241h-321q-52 -54 -107 -78t-97 -24q-35 0 -36 11q-1 3 3 6
q55 42 71 89q-43 12 -71 47.5t-28 81.5v256q0 56 39 95t94 39h453q55 0 94 -39t39 -95v-256q0 -55 -39 -94t-94 -39zM305 527q-13 12 -30.5 12t-30 -12.5t-12.5 -30t12.5 -30t30 -12.5t30 12.5t12.5 30t-12 30.5zM452 527q-13 12 -30.5 12t-30 -12.5t-12.5 -30t12.5 -30
t30 -12.5t30 12.5t12.5 30t-12 30.5zM599 527q-13 12 -30.5 12t-30 -12.5t-12.5 -30t12.5 -30t30 -12.5t30 12.5t12.5 30t-12 30.5zM599 527z" />
    <glyph glyph-name="uniE614" unicode="&#xe614;" 
d="M842 698q-63 63 -146 98t-176 35q-91 0 -173.5 -34.5t-146.5 -96.5l-1 -2q-63 -63 -98.5 -146t-35.5 -176t35.5 -176t98.5 -145q63 -63 146 -98t175 -35t174.5 34.5t145.5 96.5l2 2q62 62 97.5 145t35.5 176t-35.5 176t-97.5 146zM754 682q20 -15 38 -34q15 -14 33 -37
l-33 -34q-3 -3 -8 -3t-9 3l-54 54q-3 3 -3 8.5t3 9.5zM470 758q24 3 50 3t51 -3v-47q0 -5 -4 -9q-4 -3 -9 -3h-76q-5 0 -8 3q-4 5 -4 9v47zM248 648l2 2q19 19 36 32l33 -33q4 -3 4 -9t-4 -9l-53 -54q-3 -3 -9 -3t-9 3l-33 34q15 19 33 37zM135 376q0 22 4 51h47q5 0 8 -4
q4 -3 4 -9v-76q0 -4 -4 -8q-3 -4 -8 -4h-47q-4 28 -4 50zM286 71q-19 15 -38 33q-17 18 -33 38l33 33q3 4 9 4q5 0 9 -4l53 -53q4 -4 4 -9q0 -6 -4 -9zM571 -5q-24 -3 -51 -3t-50 3v46q0 5 4 9q3 4 8 4h76q5 0 9 -3.5t4 -9.5v-46zM792 104l-1 -1q-16 -16 -37 -32l-33 33
q-3 3 -3 8.5t3 9.5l54 53q4 4 9 4t8 -4l34 -33q-18 -23 -34 -38zM849 178l-27 27q-15 16 -38 16t-39 -16l-53 -53q-16 -17 -16 -39t16 -39v1v-1l27 -27q-51 -31 -107 -44v38h1q0 22 -16 39q-16 16 -39 16h-76q-22 0 -38 -16t-16 -39v-38q-56 14 -107 44l28 27v1q16 16 16 38
t-16 39l-54 53q-15 16 -38 16t-39 -16l-27 -27q-30 49 -45 106h40q21 0 38 16q16 16 16 38v76q0 24 -16 39q-16 16 -38 16h-40q14 56 45 106l27 -27v-1q17 -15 39 -15q23 0 38 15l54 54q16 17 16 39t-16 38l-28 28q53 31 107 44v-39q0 -22 16 -38t38 -16h76q22 0 38 15l1 1
q15 16 15 38v39q55 -13 107 -44l-27 -28q-16 -16 -16 -38t16 -39l53 -54q16 -15 39 -15t38 15l27 28q31 -50 45 -106h-39q-22 0 -38 -16h-1q-16 -16 -16 -39v-76q0 -21 16 -37v-1q17 -16 39 -16h39q-15 -58 -45 -106zM855 326q-5 0 -9 4t-4 8v76q0 6 4 9q4 4 9 4h47
q3 -25 3 -51t-3 -50h-47zM677 533q-66 65 -157 65q-90 0 -155 -64l-2 -1q-64 -65 -64 -157q0 -91 64 -156h1q64 -65 156 -65q91 0 156 64l1 1q65 65 65 156q0 92 -65 157zM647 249h-1q-52 -52 -126 -52t-127 52q-52 53 -52 127t52 127l2 2q52 51 125 51q74 0 127 -53
t53 -127q0 -73 -53 -127z" />
    <glyph glyph-name="uniE615" unicode="&#xe615;" 
d="M605 511q-8 2 -13 9l-69 99q-5 7 -9 7q-3 0 -8 -7l-59 -90q-5 -7 -13 -10l-117 -33q-7 -2 -10 -5l1 -1l2 -4q1 -3 3 -6l68 -81q6 -7 6 -16l-4 -119q-1 -9 0 -13q5 1 14 4l102 39q7 3 16 0l115 -40q1 -1 4.5 -1.5t4.5 -0.5q3 0 4 12l-6 105q-1 9 5 16l74 95q6 7 6 10h-1
q-1 1 -4.5 2t-6.5 2zM838 830h-647q-25 0 -43 -17.5t-18 -42.5v-794q0 -14 10 -24t24 -10q15 0 25 11q70 75 101 99q9 -9 26 -38q11 -16 17 -25t16.5 -21t22.5 -18t25 -6q17 0 33.5 11.5t26 23t24.5 34.5q24 35 32 42q8 -7 30 -40q10 -17 16.5 -25.5t17 -20t21 -17.5
t23.5 -6h3q17 0 34 10.5t27 21t29 32.5q25 31 37 39q24 -23 76 -92q12 -16 32 -16q16 0 28 12t12 28v789q0 25 -18 42.5t-43 17.5zM753 441l-69 -88l6 -98v-2q-1 -19 -7.5 -31.5t-15.5 -17.5t-15.5 -6.5t-12.5 -1.5q-11 0 -24 3l-108 38l-94 -36q-19 -7 -33 -7q-20 0 -32 14
q-15 16 -11 48l3 110l-66 78q-19 30 -10 54q8 23 40 32l109 32l54 83q19 28 47 28q27 0 47 -27l64 -92l98 -25q35 -11 43 -36q8 -24 -13 -52z" />
    <glyph glyph-name="uniE616" unicode="&#xe616;" horiz-adv-x="1972" 
d="M407 639v-168l-156 -94l156 -94v-144h1063v500h-1063zM751 233h-22l-135 221v-221h-31v281h34l123 -214v214h31v-281zM1001 483h-156v-94h156v-31h-156v-94h156v-31h-188v281h188v-31zM1295 233h-32l-54 209l-9 34q-6 -32 -7 -35l-54 -208h-34l-69 281h35l39 -178
q6 -25 11 -55l11 51l49 182h41l37 -137q13 -49 20 -96q5 31 12 59l40 174h34z" />
    <glyph glyph-name="uniE617" unicode="&#xe617;" 
d="M578 485q-36 0 -58 -26.5t-22 -71t22 -71t58 -26.5q32 0 52 20q27 27 27 77.5t-26 76.5q-22 21 -53 21zM927 572h-753q-26 0 -44.5 -18.5t-18.5 -44.5v-49l-76 -76l76 -76v-49q0 -26 18.5 -44.5t44.5 -18.5h753q26 0 44 18.5t18 44.5v250q0 26 -18 44.5t-44 18.5z
M435 273h-28q2 15 2 34v76h-136v-76q0 -20 2 -34h-28q2 14 2 34v161q0 20 -2 34h28q-2 -15 -2 -33v-65h136v64q0 20 -2 34h28q-2 -16 -2 -33v-162q0 -18 2 -34zM577.5 268q-47.5 0 -75.5 32.5t-28 86.5q0 55 28.5 87t76 32t75.5 -32t28 -86.5t-28.5 -87t-76 -32.5zM889 479
q-14 2 -35 2h-47v-174q0 -20 2 -34h-28q2 12 2 34v174h-47q-20 0 -34 -2v25q15 -2 34 -2h118q21 0 35 2v-25z" />
    <glyph glyph-name="uniE618" unicode="&#xe618;" 
d="M960 374v-224h-51q-12 32 -28 52q-13 19 -32 32t-45 22.5t-42 13.5t-47 10q-46 10 -64 17q-9 3 -17 7q29 32 47 74q22 53 22 110q0 114 -29 173q-22 43 -59 66q23 83 112 83q31 0 53 -10t35 -26t21 -41.5t10.5 -50.5t2.5 -59q0 -40 -16.5 -78.5t-43.5 -61.5q-5 -5 -5 -13
q-1 -28 5 -35q13 -18 40.5 -28t69.5 -18.5t61 -14.5zM140 201q14 19 33 33t45 23.5t43 13.5t49 11q45 8 65 15q10 4 16 7q-28 31 -47 74q-22 53 -23 108q-1 68 9 116q13 66 51 104q12 12 28 22q-24 83 -111 83q-31 0 -54 -10.5t-36 -26.5t-20.5 -41.5t-10 -51t-1.5 -59.5
q0 -40 16.5 -78t42.5 -61q6 -5 6 -13q0 -28 -5 -35q-13 -17 -40.5 -27t-70 -18t-61.5 -14v-226h51q10 29 25 51zM883 -23q0 -8 -5.5 -14t-13.5 -6h-703q-8 0 -13.5 6t-5.5 14q8 139 44 190q17 24 55 38t75.5 19.5t75 18t52.5 33.5q6 8 6 40q0 8 -6 14q-30 26 -48 68.5
t-18 86.5q-1 39 1.5 67.5t11 57t23 47t39.5 29.5t60 11q34 0 59 -11t39 -29t22.5 -46.5t11 -57t2.5 -66.5q0 -45 -18 -87.5t-47 -69.5q-6 -6 -6 -14q-1 -31 5 -40q15 -21 52 -34t74 -18t75 -19.5t55 -37.5q38 -50 46 -190z" />
    <glyph glyph-name="uniE619" unicode="&#xe619;" 
d="M0 760v-752h1024v752h-1024zM307 141h-236v481h236v-481zM628 141h-236v481h236v-481zM948 141h-236v481h236v-481zM810 449h37l-73 -153l39 -29l104 226h-156v-62h49v18zM481 449h37l-74 -153l40 -29l104 226h-156v-62h49v18zM160 449h37l-73 -153l39 -29l104 226h-156
v-62h49v18zM142 595h94v-53h-94v53zM459 595h93v-53h-93v53zM784 595h93v-53h-93v53zM142 226h94v-53h-94v53zM459 226h93v-53h-93v53zM784 226h93v-53h-93v53z" />
    <glyph glyph-name="uniE61A" unicode="&#xe61a;" horiz-adv-x="1025" 
d="M201 113v543q0 5 2 18l-155 -51q-28 -9 -40.5 -34.5t-4.5 -52.5l168 -516q7 -22 25.5 -35t40.5 -13q11 0 21 3l44 15q-43 8 -72 43t-29 80zM423 796v-1h1zM314 194l168 517q4 11 6 15h-161q-29 0 -49.5 -20.5t-20.5 -49.5v-543q0 -28 20.5 -49.5t49.5 -21.5h55
q-43 21 -62.5 64t-5.5 88zM976 623l-354 115q-11 4 -21 4q-23 0 -41 -13t-25 -35l-168 -516q-9 -28 4 -53.5t40 -33.5l355 -116q10 -3 21 -3q22 0 40.5 13t25.5 35l168 516q8 27 -5 52.5t-40 34.5zM645 219q-35 42 -56.5 81t-29 68.5t-7 55.5t9 43.5t21 30.5t26.5 19t28 6
q64 0 82 -76q22 25 50 29.5t61 -16.5q16 -11 25 -32t4.5 -49t-24.5 -56.5t-69 -56.5t-121 -47z" />
    <glyph glyph-name="uniE61B" unicode="&#xe61b;" 
d="M450 124v-93h93v93h-93zM689 444q21 36 21 80q0 75 -58 127.5t-155 52.5q-91 0 -147 -49t-67 -142l83 -10q11 69 46 101.5t87 32.5q53 0 90 -35.5t37 -83.5q0 -26 -12.5 -48t-54.5 -59.5t-59 -56.5q-22 -27 -32 -53q-13 -35 -13 -82v-25h78q1 49 7 70.5t18 38.5t52 52
q59 52 79 89z" />
    <glyph glyph-name="uniE61C" unicode="&#xe61c;" 
d="M644 691q22 25 33.5 61t11.5 58v23q-9 -1 -24.5 -3.5t-51 -19t-57.5 -42.5t-33.5 -61.5t-11.5 -58.5v-23q9 1 24.5 4t51.5 19.5t57 42.5zM751 359q0 54 27 99t72 70q-29 42 -76 67t-88 25q-34 0 -97 -21.5t-70.5 -21.5t-59 20t-92.5 20q-34 1 -69.5 -11t-72 -44.5
t-52.5 -80.5q-18 -53 -22 -114.5t11 -134t50 -138.5q83 -155 161 -155q25 0 79 19t77 19t69 -19t70 -19q35 0 71 26t64 69q16 24 33.5 59.5t26.5 58.5l10 22v6q-54 21 -88 70t-34 109zM751 359z" />
    <glyph glyph-name="uniE61D" unicode="&#xe61d;" 
d="M902 706q43 -1 64.5 -24.5t21.5 -60.5v-42q0 -37 -0.5 -89t-0.5 -112t-0.5 -112t-0.5 -90v-45q0 -33 -19 -55t-46 -22h-785q-33 1 -57.5 24t-24.5 60v482q0 16 6 31.5t16.5 27.5t26 20t35.5 8h513q66 0 118.5 -0.5t88.5 -0.5h44zM857 609h-694l1 -452l692 1zM924.5 419
q-15.5 0 -26.5 -11t-11 -26t11 -26t26.5 -11t27 11t11.5 26t-11.5 26t-27 11z" />
    <glyph glyph-name="uniE61E" unicode="&#xe61e;" 
d="M144 564q-26 0 -44 -18.5t-18 -44.5v-262q0 -26 18 -44.5t44 -18.5t44.5 18.5t18.5 44.5v106v50v106q0 26 -18.5 44.5t-44.5 18.5zM942 501q0 26 -18 44.5t-44 18.5t-44.5 -18.5t-18.5 -44.5v-262q0 -26 18.5 -44.5t44.5 -18.5t44 18.5t18 44.5v262zM232 553h-3v-412
q0 -26 18.5 -44.5t44.5 -18.5h52v-144q0 -25 18.5 -43.5t44.5 -18.5t44 18.5t18 43.5v107v37h86v-143q0 -26 18 -44.5t44 -18.5t44.5 18.5t18.5 44.5v106v37h52q26 0 44.5 18.5t18.5 44.5v412h-563zM794 575v30q-1 13 -4 25q-11 54 -47 99t-89 72l43 80q5 9 -4 14t-14 -4
l-44 -81q-58 25 -122 25q-66 0 -124 -25l-44 81q-5 9 -14 4t-4 -14l44 -80q-51 -26 -86 -68.5t-48 -93.5q-7 -28 -7 -56v-8h564zM641 728q11 0 18.5 -8t7.5 -19t-7.5 -18.5t-18.5 -7.5t-19 7.5t-8 18.5t8 19t19 8zM383 728q11 0 19 -8t8 -19t-8 -18.5t-19 -7.5t-18.5 7.5
t-7.5 18.5t7.5 19t18.5 8z" />
    <glyph glyph-name="uniE61F" unicode="&#xe61f;" 
d="M459 410v229l86 86v-337l-32 -32zM545 291v-338l-86 87v230l54 54z" />
    <glyph glyph-name="uniE620" unicode="&#xe620;" 
d="M339 253v-230l-86 -86v336l32 33zM718 723l-85 -86h-279l-85 86h449zM718 -79h-449l85 86h279zM643 365l44 -43l-44 -43h-299l-43 43l43 43h299zM648 393v229l86 86v-337l-31 -32z" />
    <glyph glyph-name="uniE621" unicode="&#xe621;" 
d="M718 723l-85 -86h-278l-85 86h448zM718 -79h-448l85 86h278zM644 365l43 -43l-43 -43h-300l-42 43l42 43h300zM648 392v230l86 86v-337l-31 -33zM734 274v-337l-86 86v230l55 54z" />
    <glyph glyph-name="uniE622" unicode="&#xe622;" 
d="M273 388v337l86 -86v-229l-54 -54zM737 740l-84 -85h-279l-85 85h448zM737 -62h-448l85 86h279zM663 382l43 -43l-43 -43h-300l-42 43l42 43h300zM754 290v-335l-86 86v229l54 54z" />
    <glyph glyph-name="uniE623" unicode="&#xe623;" 
d="M273 388v337l86 -86v-229l-54 -54zM359 270v-229l-86 -86v336l32 33zM737 740l-84 -85h-279l-85 85h448zM737 -62h-448l85 86h279zM663 382l43 -43l-43 -43h-300l-42 43l42 43h300zM754 291v-337l-86 86v230l54 54z" />
    <glyph glyph-name="uniE624" unicode="&#xe624;" 
d="M717 740l-85 -85h-278l-85 85h448zM647 410v229l86 86v-337l-31 -32zM733 291v-338l-86 87v230l55 54z" />
    <glyph glyph-name="uniE625" unicode="&#xe625;" 
d="M252 388v337l86 -86v-229l-54 -54zM717 740l-85 -85h-279l-85 85h449zM717 -62h-449l85 86h279zM642 382l44 -43l-44 -43h-299l-42 43l42 43h299zM647 410v229l86 86v-337l-31 -32zM733 291v-336l-86 86v229l55 54z" />
    <glyph glyph-name="uniE626" unicode="&#xe626;" 
d="M822 417h-80q0 97 -65 163t-160 66t-160 -66t-65 -163h-81q0 78 40.5 149t112 115.5t153 44.5t153 -44.5t112 -115.5t40.5 -149zM870 285q0 33 -23.5 57t-57.5 24h-538q-33 0 -56.5 -24t-23.5 -57v-382q0 -34 23.5 -57.5t56.5 -23.5h538q34 0 57.5 23.5t23.5 57.5v382z
M585 -14q0 -25 -17.5 -42.5t-42.5 -17.5h-9q-25 0 -42.5 17.5t-17.5 42.5v164q0 25 17.5 42.5t42.5 17.5h9q25 0 42.5 -17.5t17.5 -42.5v-164z" />
    <glyph glyph-name="uniE627" unicode="&#xe627;" 
d="M164 88q-20 0 -35.5 15.5t-15.5 36.5v6v303v6q0 21 15.5 36.5t35.5 15.5h118l225 196q17 12 32 10q30 -3 37 -36v-376v-377q-7 -33 -37 -35q-15 -3 -32 10q-18 14 -55 45l-109 91l-61 53h-118zM655 211q57 29 57 90t-57 90q-13 9 -13.5 22t11.5 22t26 3q53 -25 73 -81
t0 -112t-73 -81q-4 -1 -13 -1q-15 0 -22 14q-5 10 -1.5 19.5t12.5 14.5zM620 5q-1 11 4.5 20t16.5 10q97 20 156 94q63 75 63 172q0 96 -63 170q-61 76 -156 95q-17 3 -20 17.5t6.5 26t22.5 6.5q112 -21 187 -111q74 -88 74 -204q0 -118 -74 -206q-73 -88 -187 -109
q-1 -2 -4 -2q-22 0 -26 21z" />
    <glyph glyph-name="uniE628" unicode="&#xe628;" 
d="M121 803h788v-81h-788v81zM805 370l-289 289l-288 -289l38 -38l222 221v-588h54v591l224 -224z" />
    <glyph glyph-name="uniE629" unicode="&#xe629;" 
d="M929 642h-838q-24 0 -41 -17t-17 -41v-406q0 -24 17 -41t41 -17h838q24 0 41 17t17 41v406q0 24 -17 41t-41 17zM364 265q0 -6 -5 -13t-17 -7.5t-19 6t-7 14.5v95h-135v-95q0 -7 -6 -14t-18 -6q-11 0 -17 7t-6 13v222q0 5 4 13t17 8t19.5 -7t6.5 -14v-79h135v80
q0 6 5.5 13t17 8t18.5 -6.5t7 -14.5v-223zM632.5 324q-7.5 -23 -17.5 -36t-25.5 -24t-34 -17t-43.5 -6q-28 0 -49 7.5t-37.5 23t-26.5 32.5t-13 33.5t-3 37.5q1 27 6.5 45.5t14.5 33t25 27.5t35.5 21t46.5 8q23 0 44.5 -7t37.5 -20t28 -33t16 -38.5t4 -36.5q-1 -28 -8.5 -51
zM887 470.5q-7 -7.5 -17 -7.5h-69v-195q0 -6 -5.5 -14t-18.5 -8.5t-21.5 6.5t-8.5 16v195h-69q-8 0 -15 6.5t-7 18.5t7.5 18t14.5 6h192q10 0 17 -6.5t7 -17t-7 -18zM567.5 442.5q-9.5 10.5 -22.5 17t-31 7.5q-16 0 -28.5 -4t-23.5 -12.5t-19 -21t-10 -26.5t-1 -25
q0 -16 3 -31t12 -28t25.5 -21.5t34.5 -8.5q15 -2 32 3t30 18t17.5 32.5t4.5 36.5q-1 22 -7.5 37.5t-16 26z" />
    <glyph glyph-name="uniE62A" unicode="&#xe62a;" 
d="M512 490q79 0 134.5 -55.5t55.5 -134.5t-55.5 -134.5t-134.5 -55.5t-134.5 55.5t-55.5 134.5t55.5 134.5t134.5 55.5zM987 490h-352q48 -30 76 -80.5t28 -109.5q0 -58 -28 -108h1l-234 -403q18 -1 34 -1q139 0 257 68.5t186.5 186.5t68.5 257q0 99 -37 190zM512 73
q-73 0 -131 41.5t-82 108.5l-212 362q-87 -129 -87 -285q0 -127 57.5 -237t158 -181t222.5 -89l177 305q-48 -25 -103 -25zM511 527h460q-64 129 -187 207t-272 78q-120 0 -225 -52t-177 -143l176 -300q6 88 71 148.5t154 61.5z" />
    <glyph glyph-name="uniE62B" unicode="&#xe62b;" horiz-adv-x="1025" 
d="M1023 478l-12 -76q-17 141 -38 193q-14 36 -25.5 56t-15.5 22.5t-5 1.5q9 -24 13.5 -45t4.5 -29l-1 -9q-1 4 -4 11t-15 26.5t-26.5 36.5t-39 35t-52.5 27q-50 16 -93.5 22t-60 5t-24.5 -3h-3h2h1l13 -2q12 -3 31 -7.5t39 -10.5t37 -14.5t23 -16.5q-51 0 -103 -15l6 -1
q6 -1 17.5 -4.5t26 -8t32 -13.5t35 -20t35 -27.5t32.5 -36.5t27 -47t18 -58q-2 5 -6.5 12.5t-17 21.5t-23.5 18q12 -41 10.5 -101.5t-14.5 -98.5q0 -2 -2 2q-12 29 -34 40q9 -64 -3.5 -132.5t-48.5 -90.5l6 27q13 54 9 53q-2 0 -8 -10q-23 -36 -48.5 -61t-48.5 -40
t-50 -20.5t-47.5 -6.5t-47 6t-42.5 13t-40 20t-34 20.5t-29 19.5q31 -7 76.5 0.5t69.5 24.5q5 4 14 10.5t12.5 9t11.5 7.5t10.5 5.5t9.5 4t9 2t8 -0.5q14 -3 20.5 8t-3.5 24q-14 16 -40 25.5t-59 1.5q-7 -2 -26 -10t-33 -12t-36.5 -2t-44.5 15q-54 32 -55 71q2 9 5 16
q1 4 3 6.5t4.5 5t4.5 4t5.5 3t5 2.5t5.5 3l4 1q23 -4 45 -15q1 9 0 18q2 5 -1 22t-7 31v0v0q2 6 26 23q14 10 38 25q19 12 19.5 12.5t2.5 1.5v0l1 1q13 10 15 29v2v1v1v2v5v3v0l-1 1v0q-2 6 -35 6v0q-14 1 -45 0q-36 0 -57 46q11 65 69 97q1 1 0 1l-11 1q-63 -4 -107 -40
q-10 -8 -17 -18q-56 14 -105 2q-10 1 -21 3q-49 44 -50 91h-1v1l-6 -6q-4 -4 -14 -18.5t-17.5 -33t-12 -49.5t-1.5 -67v-6q-24 -31 -26 -45q-25 -51 -41 -142q8 27 25 57q-23 -73 -16 -186q1 20 7 48q7 -97 69 -202q65 -112 162 -173t214 -70q41 -3 82 0h7q48 4 94 15
q253 61 341 322q46 146 38 294z" />
    <glyph glyph-name="uniE62C" unicode="&#xe62c;" 
d="M754 211h236q3 23 3 50q0 119 -59 221q62 166 -15 243q-36 37 -128.5 30.5t-203.5 -55.5q-17 1 -34 1q-153 0 -271.5 -94t-155.5 -239q99 127 224 187q-13 -12 -65 -64q-86 -86 -148.5 -188t-89.5 -189t-26.5 -156.5t30.5 -100.5q49 -45 126.5 -41t176.5 53
q93 -48 199 -48q143 0 257 83t159 215h-238q-25 -46 -70.5 -74t-99.5 -28t-99.5 28t-70.5 74q-23 43 -23 91v1h386zM368 327q4 73 57.5 124t127.5 51t127.5 -51t57.5 -124h-370zM917 676q50 -50 4 -174q-76 116 -205 168q145 62 201 6zM113 -127q-31 33 -23.5 95.5
t49.5 145.5q25 -72 73.5 -131t113.5 -99q-73 -33 -127.5 -36.5t-85.5 25.5z" />
    <glyph glyph-name="uniE62D" unicode="&#xe62d;" 
d="M512 748q-36 0 -71 -5q0 1 -1 2q21 17 17 38q-3 13 -16 21t-31 8q-7 0 -15 -2q-23 -4 -36 -19t-10 -31q5 -21 30 -28v-3q-152 -43 -249.5 -170.5t-97.5 -290.5q0 -98 38 -186.5t102.5 -153t153 -102.5t186.5 -38t186.5 38t153 102.5t102.5 153t38 186.5t-38 186.5
t-102.5 153t-153 102.5t-186.5 38zM365 763q-2 10 8 19t25 13q6 1 12 1q28 0 31 -17q3 -11 -11 -22q-12 9 -25.5 6t-20.5 -15q-17 4 -19 15zM769 11q-66 -67 -155 -93l-42 69l-11 -80q-25 -3 -49 -3q-73 0 -139.5 27.5t-117.5 79.5q-67 66 -93 155l69 42l-80 11q-3 25 -3 49
q0 73 27.5 139.5t79.5 117.5q66 67 155 93l42 -69l11 80q25 3 49 3q73 0 139.5 -27.5t117.5 -79.5q67 -66 93 -155l-69 -42l80 -11q3 -25 3 -49q0 -73 -27.5 -139.5t-79.5 -117.5zM761 517l-197 -150q-23 12 -48 13l-51 107l-3 -119q-20 -9 -35 -26l-63 22l46 -49
q-9 -20 -10 -42l-107 -52l119 -3q0 -1 1 -2l-150 -197l197 150q23 -12 47 -13l52 -107l3 119q20 9 35 26l63 -22l-46 49q9 20 10 42l107 52l-119 3q0 1 -1 2zM512 367zM492 362q10 2 20 2q6 0 12 -1v0q14 -2 26 -7l-72 -54l-54 -72q-4 9 -6 18q-8 39 13.5 72.5t60.5 41.5z
M562 186v0q-14 -9 -30 -12q-10 -2 -20 -2q-6 0 -12 1q-14 1 -26 7l72 54l54 72q4 -9 6 -18q6 -30 -6 -58t-38 -44z" />
    <glyph glyph-name="uniE62E" unicode="&#xe62e;" 
d="M703 381l-341 341l-41 -42l299 -298l-299 -300l41 -42z" />
    <glyph glyph-name="uniE62F" unicode="&#xe62f;" 
d="M522 132l1 1l279 297l-57 53l-227 -242l-244 226l-53 -57z" />
    <glyph glyph-name="uniE630" unicode="&#xe630;" horiz-adv-x="1515" 
d="M1037 182l-266 267q-6 5 -13.5 5t-13.5 -5l-266 -267q-6 -5 -6 -12.5t6 -13.5l29 -29q5 -5 12.5 -5t13.5 5l224 225l225 -225q6 -5 13.5 -5t12.5 5l29 29q6 6 6 13.5t-6 12.5z" />
    <glyph glyph-name="uniE631" unicode="&#xe631;" 
d="M512 -30q130 0 239 65l187 -55l-43 193q62 98 62 211q0 112 -59.5 207.5t-162 151t-223.5 55.5t-223.5 -55.5t-162 -151t-59.5 -207.5t59.5 -207.5t162 -151t223.5 -55.5zM744 89l-9 -6q-101 -63 -223 -63q-108 0 -199 49t-144.5 132.5t-53.5 182.5t53.5 182.5
t144.5 132.5t199 49t199 -49t144.5 -132.5t53.5 -182.5q0 -103 -60 -192l-7 -9l30 -131zM607 383q0 -20 14 -34.5t33.5 -14.5t33.5 14.5t14 34.5t-14 34t-33.5 14t-33.5 -14t-14 -34zM443 383q0 -20 13.5 -34.5t33.5 -14.5t33.5 14.5t13.5 34.5t-13.5 34t-33.5 14t-33.5 -14
t-13.5 -34zM278 383q0 -20 14 -34.5t33.5 -14.5t33.5 14.5t14 34.5t-14 34t-33.5 14t-33.5 -14t-14 -34zM278 383z" />
  </font>
</defs>
</svg>
